<svg width="135" height="40" viewBox="0 0 135 40" fill="none" xmlns="http://www.w3.org/2000/svg">
<g clip-path="url(#clip0)">
<path d="M130.197 40H4.73C3.47582 39.9974 2.27381 39.4978 1.38725 38.6106C0.500686 37.7235 0.00184938 36.5212 0 35.267L0 4.727C0.00158907 3.47329 0.500533 2.27143 1.38732 1.3852C2.27411 0.498975 3.47629 0.000793655 4.73 0L130.197 0C132.803 0 135 2.12 135 4.726V35.266C135 37.872 132.803 40 130.197 40Z" fill="#A6A6A6"/>
<path d="M134.032 35.268C134.032 35.7713 133.933 36.2697 133.74 36.7346C133.547 37.1996 133.265 37.6219 132.909 37.9776C132.553 38.3334 132.13 38.6154 131.665 38.8076C131.2 38.9999 130.701 39.0985 130.198 39.098H4.72789C3.71113 39.0988 2.73567 38.6958 2.01597 37.9776C1.29626 37.2594 0.891218 36.2848 0.889893 35.268V4.72501C0.891218 3.70745 1.29637 2.73201 2.01637 2.01296C2.73636 1.2939 3.71233 0.890014 4.72989 0.890015H130.197C132.317 0.890015 134.031 2.61001 134.031 4.72501L134.033 35.268H134.032Z" fill="black"/>
<path d="M30.1281 19.784C30.0981 16.561 32.7681 14.994 32.8881 14.92C31.3781 12.717 29.0361 12.416 28.2131 12.392C26.2461 12.185 24.3381 13.569 23.3361 13.569C22.3141 13.569 20.7711 12.411 19.1081 12.445C16.9681 12.478 14.9661 13.717 13.8681 15.641C11.6021 19.564 13.2921 25.329 15.4631 28.501C16.5491 30.053 17.8181 31.787 19.4791 31.726C21.1031 31.659 21.7091 30.69 23.6711 30.69C25.6141 30.69 26.1841 31.727 27.8781 31.688C29.6211 31.66 30.7181 30.128 31.7681 28.561C33.0221 26.781 33.5261 25.029 33.5461 24.939C33.5061 24.925 30.1591 23.649 30.1261 19.785L30.1281 19.784ZM26.9281 10.306C27.8021 9.213 28.4001 7.726 28.2341 6.216C26.9691 6.273 25.3871 7.092 24.4761 8.161C23.6701 9.104 22.9501 10.648 23.1361 12.101C24.5561 12.206 26.0161 11.383 26.9281 10.307V10.306Z" fill="white"/>
<path d="M53.6449 31.504H51.3749L50.1299 27.594H45.8059L44.6209 31.504H42.4109L46.6949 18.196H49.3409L53.6459 31.504H53.6449ZM49.7549 25.954L48.6299 22.48C48.5099 22.125 48.2879 21.29 47.9599 19.973H47.9199C47.7201 20.8114 47.509 21.6472 47.2869 22.48L46.1819 25.955H49.7549V25.954ZM64.6619 26.588C64.6619 28.22 64.2219 29.51 63.3389 30.458C62.5489 31.3 61.5669 31.721 60.3959 31.721C59.1319 31.721 58.2239 31.268 57.6709 30.361H57.6309V35.415H55.4999V25.067C55.4999 24.041 55.4729 22.987 55.4199 21.907H57.2959L57.4159 23.429H57.4559C58.1659 22.282 59.2459 21.709 60.6929 21.709C61.8249 21.709 62.7699 22.157 63.5259 23.052C64.2839 23.948 64.6619 25.126 64.6619 26.587V26.588ZM62.4899 26.666C62.4899 25.732 62.2799 24.962 61.8579 24.356C61.3979 23.724 60.7779 23.408 60.0019 23.408C59.4759 23.408 58.9979 23.584 58.5719 23.931C58.1419 24.281 57.8619 24.739 57.7319 25.305C57.6659 25.569 57.6319 25.785 57.6319 25.955V27.555C57.6319 28.253 57.8469 28.842 58.2749 29.323C58.7029 29.804 59.2589 30.043 59.9429 30.043C60.7459 30.043 61.3709 29.733 61.8179 29.116C62.2659 28.496 62.4899 27.681 62.4899 26.666V26.666ZM75.6999 26.588C75.6999 28.22 75.2579 29.51 74.3749 30.458C73.5849 31.3 72.6049 31.721 71.4349 31.721C70.1699 31.721 69.2619 31.268 68.7099 30.361H68.6699V35.415H66.5379V25.067C66.5379 24.041 66.5109 22.987 66.4579 21.907H68.3339L68.4539 23.429H68.4939C69.2039 22.282 70.2819 21.709 71.7309 21.709C72.8629 21.709 73.8079 22.157 74.5659 23.052C75.3209 23.948 75.6999 25.126 75.6999 26.587V26.588ZM73.5269 26.666C73.5269 25.732 73.3169 24.962 72.8939 24.356C72.4339 23.724 71.8159 23.408 71.0389 23.408C70.5144 23.4076 70.0068 23.5929 69.6059 23.931C69.1779 24.281 68.8989 24.739 68.7679 25.305C68.7019 25.569 68.6679 25.785 68.6679 25.955V27.555C68.6679 28.253 68.8819 28.842 69.3079 29.323C69.7359 29.803 70.2919 30.043 70.9779 30.043C71.7809 30.043 72.4059 29.733 72.8529 29.116C73.3009 28.496 73.5249 27.681 73.5249 26.666H73.5269ZM88.0399 27.772C88.0399 28.904 87.6459 29.825 86.8569 30.536C85.9899 31.313 84.7829 31.701 83.2319 31.701C81.7999 31.701 80.6519 31.426 79.7819 30.873L80.2769 29.096C81.2129 29.662 82.2399 29.946 83.3589 29.946C84.1609 29.946 84.7859 29.764 85.2349 29.402C85.6819 29.042 85.9049 28.555 85.9049 27.949C85.9049 27.409 85.7209 26.954 85.3519 26.585C84.9849 26.215 84.3719 25.873 83.5159 25.555C81.1859 24.687 80.0219 23.415 80.0219 21.74C80.0219 20.646 80.4299 19.75 81.2469 19.05C82.0609 18.352 83.1469 18.003 84.5049 18.003C85.7149 18.003 86.7219 18.215 87.5249 18.636L86.9919 20.374C86.2419 19.967 85.3939 19.764 84.4449 19.764C83.6949 19.764 83.1089 19.948 82.6889 20.316C82.5186 20.4667 82.3828 20.6523 82.2908 20.8603C82.1988 21.0682 82.1528 21.2936 82.1559 21.521C82.1559 22.047 82.3589 22.481 82.7659 22.824C83.1219 23.14 83.7659 23.482 84.7029 23.851C85.8479 24.311 86.6889 24.851 87.2299 25.469C87.7699 26.085 88.0399 26.856 88.0399 27.776V27.772ZM95.0879 23.508H92.7379V28.168C92.7379 29.352 93.1519 29.944 93.9819 29.944C94.3619 29.944 94.6789 29.911 94.9289 29.844L94.9869 31.464C94.5669 31.621 94.0139 31.7 93.3289 31.7C92.4869 31.7 91.8289 31.443 91.3539 30.93C90.8809 30.416 90.6439 29.554 90.6439 28.343V23.506H89.2439V21.906H90.6439V20.15L92.7369 19.517V21.907H95.0869V23.507L95.0879 23.508ZM105.69 26.627C105.69 28.102 105.27 29.313 104.427 30.26C103.544 31.235 102.372 31.72 100.911 31.72C99.5039 31.72 98.3829 31.254 97.5469 30.32C96.7109 29.386 96.2929 28.207 96.2929 26.786C96.2929 25.299 96.7229 24.081 97.5859 23.134C98.4459 22.186 99.6089 21.712 101.07 21.712C102.477 21.712 103.61 22.179 104.465 23.114C105.283 24.021 105.691 25.192 105.691 26.627H105.69ZM103.48 26.697C103.48 25.811 103.29 25.052 102.907 24.419C102.46 23.652 101.821 23.269 100.993 23.269C100.136 23.269 99.4849 23.653 99.0379 24.419C98.6549 25.052 98.4659 25.823 98.4659 26.735C98.4659 27.62 98.6559 28.379 99.0379 29.011C99.4979 29.777 100.143 30.159 100.974 30.159C101.788 30.159 102.427 29.769 102.888 28.991C103.281 28.346 103.478 27.579 103.478 26.695L103.48 26.697ZM112.62 23.783C112.41 23.743 112.185 23.723 111.95 23.723C111.2 23.723 110.62 24.007 110.21 24.573C109.856 25.073 109.678 25.706 109.678 26.469V31.503H107.548L107.568 24.929C107.568 23.823 107.54 22.816 107.488 21.909H109.344L109.422 23.744H109.482C109.706 23.114 110.062 22.604 110.547 22.224C110.991 21.8913 111.532 21.711 112.087 21.71C112.285 21.71 112.463 21.725 112.621 21.75V23.783H112.62ZM122.156 26.252C122.161 26.5761 122.135 26.8999 122.078 27.219H115.682C115.707 28.166 116.016 28.891 116.61 29.391C117.15 29.838 117.846 30.061 118.702 30.061C119.649 30.061 120.512 29.911 121.29 29.608L121.624 31.088C120.716 31.483 119.644 31.68 118.407 31.68C116.919 31.68 115.751 31.242 114.901 30.367C114.054 29.491 113.629 28.317 113.629 26.842C113.629 25.395 114.024 24.19 114.815 23.229C115.643 22.203 116.762 21.689 118.17 21.689C119.552 21.689 120.6 22.203 121.31 23.229C121.873 24.044 122.156 25.052 122.156 26.249V26.252ZM120.123 25.699C120.137 25.066 119.998 24.519 119.709 24.059C119.339 23.466 118.772 23.169 118.009 23.169C117.312 23.169 116.745 23.459 116.312 24.039C115.957 24.499 115.746 25.053 115.682 25.697H120.122L120.123 25.699Z" fill="white"/>
<path d="M49.05 10.01C49.05 11.186 48.6971 12.072 47.9921 12.667C47.3391 13.217 46.412 13.491 45.209 13.491C44.612 13.491 44.102 13.466 43.675 13.414V6.98403C44.232 6.89403 44.832 6.84703 45.48 6.84703C46.626 6.84703 47.49 7.09703 48.07 7.59403C48.723 8.15703 49.05 8.96203 49.05 10.01V10.01ZM47.945 10.038C47.945 9.27503 47.7431 8.69003 47.3391 8.28203C46.9341 7.87503 46.3441 7.67203 45.5671 7.67203C45.2371 7.67203 44.957 7.69203 44.723 7.73903V12.627C44.853 12.647 45.088 12.657 45.431 12.657C46.233 12.657 46.851 12.433 47.288 11.987C47.725 11.541 47.9431 10.891 47.9431 10.037L47.945 10.038ZM54.91 11.037C54.91 11.762 54.702 12.357 54.288 12.822C53.854 13.302 53.2781 13.54 52.5611 13.54C51.8711 13.54 51.3191 13.31 50.9081 12.85C50.4981 12.392 50.293 11.813 50.293 11.115C50.293 10.385 50.5031 9.78503 50.9281 9.32103C51.3531 8.85703 51.922 8.62403 52.64 8.62403C53.33 8.62403 53.887 8.85403 54.308 9.31203C54.708 9.75903 54.9081 10.335 54.9081 11.039L54.91 11.037ZM53.822 11.071C53.822 10.637 53.728 10.264 53.542 9.95303C53.322 9.57703 53.0081 9.38903 52.6021 9.38903C52.1801 9.38903 51.86 9.57703 51.64 9.95303C51.452 10.263 51.3601 10.643 51.3601 11.091C51.3601 11.526 51.453 11.899 51.64 12.211C51.867 12.586 52.183 12.774 52.59 12.774C52.99 12.774 53.305 12.584 53.53 12.2C53.725 11.882 53.822 11.506 53.822 11.07V11.071ZM62.765 8.72003L61.2901 13.433H60.3301L59.7201 11.386C59.5674 10.8852 59.4406 10.3769 59.34 9.86303H59.32C59.23 10.3789 59.1037 10.8879 58.9421 11.386L58.292 13.433H57.322L55.9351 8.72003H57.0121L57.545 10.96C57.675 11.49 57.7801 11.995 57.8651 12.473H57.885C57.962 12.079 58.091 11.577 58.273 10.97L58.9431 8.72003H59.7961L60.4361 10.922C60.5921 11.459 60.7181 11.976 60.8161 12.474H60.8441C60.9141 11.989 61.0221 11.472 61.1641 10.922L61.736 8.72003H62.766H62.765ZM68.198 13.433H67.1501V10.733C67.1501 9.90103 66.834 9.48503 66.2 9.48503C66.0561 9.4808 65.9131 9.50951 65.7819 9.56895C65.6507 9.62839 65.5348 9.717 65.4431 9.82803C65.2501 10.058 65.153 10.328 65.153 10.636V13.432H64.103V10.066C64.1022 9.61579 64.0899 9.16564 64.0661 8.71603H64.986L65.0361 9.45403H65.0661C65.1861 9.22403 65.3691 9.03603 65.6081 8.88403C65.8933 8.70782 66.2228 8.61627 66.558 8.62003C66.998 8.62003 67.364 8.76203 67.655 9.04703C68.017 9.39703 68.198 9.91703 68.198 10.609V13.432V13.433ZM71.088 13.433H70.0401V6.55603H71.088V13.433V13.433ZM77.2581 11.037C77.2581 11.762 77.0511 12.357 76.6381 12.822C76.2031 13.302 75.6281 13.54 74.9101 13.54C74.2171 13.54 73.666 13.31 73.256 12.85C72.846 12.392 72.641 11.813 72.641 11.115C72.641 10.385 72.8531 9.78503 73.2771 9.32103C73.7011 8.85703 74.271 8.62403 74.987 8.62403C75.681 8.62403 76.237 8.85403 76.657 9.31203C77.057 9.75903 77.2591 10.335 77.2591 11.039L77.2581 11.037ZM76.17 11.071C76.17 10.637 76.076 10.264 75.89 9.95303C75.67 9.57703 75.356 9.38903 74.95 9.38903C74.528 9.38903 74.208 9.57703 73.99 9.95303C73.8 10.263 73.708 10.643 73.708 11.091C73.708 11.526 73.802 11.899 73.988 12.211C74.216 12.586 74.5321 12.774 74.9401 12.774C75.3401 12.774 75.653 12.584 75.88 12.2C76.074 11.882 76.17 11.506 76.17 11.07V11.071ZM82.3301 13.433H81.39L81.31 12.89H81.282C80.96 13.323 80.502 13.54 79.905 13.54C79.46 13.54 79.1001 13.397 78.8291 13.113C78.7072 12.9853 78.6117 12.8347 78.5482 12.67C78.4847 12.5052 78.4544 12.3295 78.459 12.153C78.459 11.577 78.699 11.138 79.182 10.833C79.664 10.53 80.342 10.381 81.215 10.388V10.3C81.215 9.68003 80.8891 9.37003 80.2351 9.37003C79.7711 9.37003 79.3611 9.48603 79.0071 9.71803L78.794 9.03003C79.232 8.76003 79.7741 8.62303 80.4111 8.62303C81.6431 8.62303 82.2611 9.27303 82.2611 10.573V12.309C82.2611 12.779 82.2841 13.154 82.3291 13.432L82.3301 13.433ZM81.242 11.813V11.086C80.086 11.066 79.5081 11.383 79.5081 12.036C79.5081 12.282 79.574 12.466 79.708 12.589C79.8492 12.7137 80.0329 12.7792 80.2211 12.772C80.4511 12.772 80.667 12.699 80.863 12.554C80.982 12.4706 81.0787 12.3594 81.1449 12.2301C81.2112 12.1008 81.2448 11.9573 81.243 11.812L81.242 11.813ZM88.2851 13.433H87.3551L87.305 12.676H87.2771C86.9801 13.252 86.4741 13.54 85.7631 13.54C85.1951 13.54 84.723 13.317 84.347 12.87C83.971 12.423 83.7851 11.846 83.7851 11.135C83.7851 10.372 83.988 9.75503 84.395 9.28203C84.791 8.84203 85.275 8.62203 85.851 8.62203C86.485 8.62203 86.928 8.83503 87.181 9.26203H87.201V6.55603H88.2491V12.163C88.2491 12.623 88.2611 13.045 88.2861 13.433H88.2851ZM87.2 11.445V10.659C87.2099 10.4777 87.1782 10.2966 87.1075 10.1294C87.0368 9.96217 86.9289 9.81328 86.792 9.69403C86.5986 9.52311 86.3481 9.43103 86.09 9.43603C85.7 9.43603 85.393 9.59103 85.168 9.90203C84.945 10.212 84.8321 10.61 84.8321 11.095C84.8321 11.561 84.939 11.939 85.154 12.23C85.381 12.54 85.687 12.696 86.07 12.696C86.414 12.696 86.6901 12.566 86.8981 12.308C87.1001 12.068 87.198 11.781 87.198 11.445H87.2ZM97.2481 11.037C97.2481 11.762 97.041 12.357 96.628 12.822C96.193 13.302 95.6181 13.54 94.9001 13.54C94.2101 13.54 93.6581 13.31 93.2461 12.85C92.8361 12.392 92.631 11.813 92.631 11.115C92.631 10.385 92.843 9.78503 93.267 9.32103C93.691 8.85703 94.2611 8.62403 94.9801 8.62403C95.6701 8.62403 96.2271 8.85403 96.6471 9.31203C97.0471 9.75903 97.2471 10.335 97.2471 11.039L97.2481 11.037ZM96.1621 11.071C96.1621 10.637 96.0681 10.264 95.8821 9.95303C95.6601 9.57703 95.3481 9.38903 94.9401 9.38903C94.5201 9.38903 94.2001 9.57703 93.9801 9.95303C93.7901 10.263 93.698 10.643 93.698 11.091C93.698 11.526 93.792 11.899 93.978 12.211C94.206 12.586 94.522 12.774 94.93 12.774C95.33 12.774 95.6451 12.584 95.8701 12.2C96.0641 11.882 96.1621 11.506 96.1621 11.07V11.071ZM102.883 13.433H101.836V10.733C101.836 9.90103 101.52 9.48503 100.886 9.48503C100.574 9.48503 100.323 9.59903 100.129 9.82803C99.935 10.057 99.837 10.328 99.837 10.636V13.432H98.7871V10.066C98.7871 9.65203 98.777 9.20303 98.751 8.71603H99.671L99.7211 9.45403H99.7491C99.8772 9.21992 100.064 9.02341 100.292 8.88403C100.577 8.70903 100.894 8.62003 101.242 8.62003C101.682 8.62003 102.048 8.76203 102.339 9.04703C102.702 9.39703 102.882 9.91703 102.882 10.609V13.432L102.883 13.433ZM109.936 9.50403H108.782V11.794C108.782 12.376 108.987 12.667 109.392 12.667C109.582 12.667 109.737 12.651 109.86 12.617L109.887 13.413C109.68 13.491 109.407 13.53 109.073 13.53C108.659 13.53 108.337 13.404 108.103 13.152C107.87 12.9 107.753 12.476 107.753 11.882V9.50303H107.065V8.72003H107.755V7.85503L108.781 7.54503V8.71803H109.936V9.50403V9.50403ZM115.484 13.433H114.434V10.753C114.434 9.90803 114.119 9.48503 113.486 9.48503C113 9.48503 112.668 9.73003 112.486 10.22C112.456 10.323 112.436 10.45 112.436 10.597V13.432H111.39V6.55603H112.437V9.39603H112.457C112.787 8.88003 113.26 8.62203 113.873 8.62203C114.307 8.62203 114.666 8.76403 114.951 9.04903C115.307 9.40303 115.485 9.93103 115.485 10.629V13.432L115.484 13.433ZM121.207 10.853C121.207 11.041 121.193 11.199 121.167 11.328H118.025C118.039 11.794 118.189 12.148 118.48 12.395C118.746 12.615 119.09 12.725 119.51 12.725C119.974 12.725 120.398 12.651 120.78 12.502L120.944 13.23C120.497 13.424 119.971 13.52 119.362 13.52C118.632 13.52 118.057 13.306 117.642 12.876C117.222 12.446 117.016 11.869 117.016 11.146C117.016 10.434 117.209 9.84203 117.598 9.37003C118.004 8.86603 118.553 8.61403 119.246 8.61403C119.924 8.61403 120.439 8.86603 120.786 9.37003C121.068 9.77003 121.206 10.265 121.206 10.853H121.207ZM120.207 10.583C120.222 10.3001 120.151 10.0192 120.004 9.77703C119.822 9.48703 119.544 9.34003 119.17 9.34003C119.007 9.33725 118.845 9.37475 118.7 9.44922C118.554 9.52369 118.429 9.63284 118.336 9.76703C118.159 10.0044 118.051 10.2867 118.026 10.582H120.206L120.207 10.583Z" fill="white"/>
</g>
<defs>
<clipPath id="clip0">
<rect width="135" height="40" fill="white"/>
</clipPath>
</defs>
</svg>
