<svg width="22" height="24" viewBox="0 0 22 24" fill="none" xmlns="http://www.w3.org/2000/svg">
<g clip-path="url(#clip0)">
<path d="M19.6429 1.5H2.35714C1.73199 1.5 1.13244 1.73705 0.690391 2.15901C0.248341 2.58097 0 3.15326 0 3.75L0 20.25C0 20.8467 0.248341 21.419 0.690391 21.841C1.13244 22.2629 1.73199 22.5 2.35714 22.5H9.0971V15.3605H6.00335V12H9.0971V9.43875C9.0971 6.52547 10.9141 4.91625 13.697 4.91625C15.0297 4.91625 16.4234 5.14313 16.4234 5.14313V8.0025H14.8878C13.3748 8.0025 12.9029 8.89875 12.9029 9.81797V12H16.2805L15.7403 15.3605H12.9029V22.5H19.6429C20.268 22.5 20.8676 22.2629 21.3096 21.841C21.7517 21.419 22 20.8467 22 20.25V3.75C22 3.15326 21.7517 2.58097 21.3096 2.15901C20.8676 1.73705 20.268 1.5 19.6429 1.5V1.5Z" fill="black"/>
</g>
<defs>
<clipPath id="clip0">
<rect width="22" height="24" fill="white"/>
</clipPath>
</defs>
</svg>
