<svg width="135" height="40" viewBox="0 0 135 40" fill="none" xmlns="http://www.w3.org/2000/svg">
<g clip-path="url(#clip0)">
<path d="M129.851 39.9242H5.21236C2.4719 39.9242 0.226807 37.6953 0.226807 34.9726V5.26367C0.226807 2.54297 2.4719 0.314026 5.21236 0.314026H129.851C132.592 0.314026 134.835 2.54297 134.835 5.26467V34.9736C134.835 37.6953 132.592 39.9242 129.851 39.9242V39.9242Z" fill="black"/>
<path d="M129.851 1.10761C132.159 1.10761 134.037 2.97272 134.037 5.26564V34.9715C134.037 37.2654 132.159 39.1296 129.849 39.1296H5.21236C2.9046 39.1296 1.02656 37.2654 1.02656 34.9715V5.26763C1.02656 2.97472 2.9046 1.10961 5.21236 1.10961H129.851V1.10761ZM129.851 0.315987H5.21236C2.4719 0.313988 0.226807 2.54293 0.226807 5.26464V34.9735C0.226807 37.6952 2.4719 39.9242 5.21236 39.9242H129.851C132.592 39.9242 134.835 37.6952 134.835 34.9725V5.26364C134.835 2.54193 132.592 0.312988 129.851 0.312988V0.315987Z" fill="#A6A6A6"/>
<path d="M47.5073 10.4569C47.5073 11.2838 47.2581 11.946 46.767 12.4399C46.2024 13.0254 45.467 13.3187 44.5659 13.3187C43.7059 13.3187 42.9705 13.0217 42.366 12.43C41.7602 11.8296 41.4586 11.0931 41.4586 10.2143C41.4586 9.33545 41.7602 8.59895 42.3647 8.0048C42.6508 7.71521 42.9933 7.48652 43.3713 7.33266C43.7493 7.1788 44.1549 7.10299 44.5634 7.10986C44.9921 7.10986 45.4009 7.19651 45.7911 7.36114C46.1774 7.52577 46.4953 7.74858 46.7259 8.02337L46.2024 8.54573C45.8035 8.07536 45.2589 7.84513 44.5621 7.84513C43.9339 7.84513 43.3905 8.06298 42.9269 8.50116C42.4694 8.94306 42.2413 9.51369 42.2413 10.2143C42.2413 10.9149 42.4694 11.4892 42.9269 11.9311C43.388 12.3644 43.9339 12.5872 44.5621 12.5872C45.2289 12.5872 45.7898 12.3644 46.2323 11.9262C46.5239 11.6353 46.6897 11.233 46.7333 10.7218H44.5621V10.0063H47.4587C47.4936 10.1611 47.5036 10.3108 47.5036 10.4557L47.5073 10.4569ZM52.1015 7.97509H49.3844V9.85657H51.8373V10.5745H49.3844V12.456H52.1053V13.1838H48.6154V7.24726H52.1053V7.97757L52.1015 7.97509ZM55.3459 13.1838H54.5756V7.97509H52.9055V7.24726H57.0161V7.97757H55.3459V13.1838V13.1838ZM59.9912 13.1838V7.24726H60.759V13.1838H59.9899H59.9912ZM64.1666 13.1838H63.4038V7.97509H61.7287V7.24726H65.8417V7.97757H64.1678V13.1838H64.1666ZM73.6229 12.4188C73.0334 13.0204 72.3018 13.32 71.4318 13.32C70.5543 13.32 69.824 13.0204 69.2344 12.4201C68.6461 11.8222 68.3532 11.087 68.3532 10.2168C68.3532 9.34659 68.6461 8.61133 69.2344 8.01347C69.824 7.41189 70.5556 7.11234 71.4305 7.11234C72.2955 7.11234 73.0259 7.41189 73.6155 8.01594C74.2087 8.62247 74.5004 9.35278 74.5004 10.2168C74.5004 11.087 74.2088 11.8222 73.6205 12.4201L73.6229 12.4188ZM69.8053 11.9237C70.249 12.3669 70.7899 12.5897 71.4318 12.5897C72.0675 12.5897 72.6134 12.3669 73.0521 11.9212C73.4946 11.4781 73.7189 10.9062 73.7189 10.2155C73.7189 9.52236 73.4946 8.95297 73.0521 8.50735C72.6134 8.06422 72.0675 7.84141 71.4318 7.84141C70.7874 7.84141 70.2477 8.06422 69.804 8.50983C69.3615 8.95297 69.1372 9.52484 69.1372 10.2155C69.1372 10.9087 69.3615 11.4781 69.8028 11.9237H69.8053ZM75.5835 13.1838V7.24726H76.5183L79.4261 11.8643H79.4598L79.4261 10.723V7.24726H80.1952V13.1838H79.3925L76.3488 8.33901H76.3151L76.3488 9.48523V13.1838H75.5848H75.5835Z" fill="white" stroke="white" stroke-width="0.199308" stroke-miterlimit="10"/>
<path d="M68.1645 21.8546C65.8229 21.8546 63.91 23.6238 63.91 26.0666C63.91 28.4885 65.8219 30.2766 68.1635 30.2766C70.511 30.2766 72.4239 28.4875 72.4239 26.0656C72.4239 23.6228 70.51 21.8526 68.1625 21.8526L68.1645 21.8546ZM68.1645 28.6194C66.8813 28.6194 65.7741 27.5659 65.7741 26.0666C65.7741 24.5473 66.8803 23.5118 68.1645 23.5118C69.4496 23.5118 70.5617 24.5463 70.5617 26.0656C70.5617 27.5649 69.4496 28.6174 68.1645 28.6174V28.6194ZM58.8807 21.8546C56.5331 21.8546 54.6253 23.6238 54.6253 26.0666C54.6253 28.4885 56.5331 30.2766 58.8807 30.2766C61.2263 30.2766 63.1361 28.4875 63.1361 26.0656C63.1361 23.6228 61.2263 21.8526 58.8817 21.8526L58.8807 21.8546ZM58.8807 28.6194C57.5945 28.6194 56.4854 27.5659 56.4854 26.0666C56.4854 24.5473 57.5945 23.5118 58.8807 23.5118C60.1659 23.5118 61.271 24.5463 61.271 26.0656C61.271 27.5649 60.1669 28.6174 58.8807 28.6174V28.6194ZM47.8323 23.145V24.9341H52.1365C52.0101 25.9357 51.6739 26.6703 51.1577 27.1831C50.529 27.8028 49.5502 28.4895 47.8313 28.4895C47.2095 28.4928 46.5933 28.372 46.0183 28.1342C45.4433 27.8964 44.9211 27.5462 44.4818 27.104C44.0426 26.6618 43.6951 26.1363 43.4595 25.5581C43.2239 24.9799 43.1049 24.3605 43.1093 23.7357C43.1049 23.111 43.2238 22.4917 43.4594 21.9135C43.6949 21.3354 44.0423 20.81 44.4815 20.3678C44.9206 19.9256 45.4428 19.5754 46.0176 19.3375C46.5925 19.0996 47.2086 18.9788 47.8303 18.982C49.2627 18.982 50.3052 19.5397 51.0731 20.2594L52.3434 18.998C51.2691 17.9785 49.8367 17.1948 47.8303 17.1948C44.1996 17.1948 41.1458 20.1294 41.1458 23.7367C41.1458 27.345 44.1996 30.2786 47.8303 30.2786C49.7939 30.2786 51.2681 29.6389 52.4259 28.4415C53.6146 27.262 53.9857 25.6028 53.9857 24.2635C53.9857 23.8477 53.9508 23.4658 53.8882 23.146H47.8303L47.8323 23.145ZM93.0087 24.5343C92.6585 23.5908 91.5783 21.8556 89.3779 21.8556C87.1955 21.8556 85.3792 23.5608 85.3792 26.0666C85.3792 28.4255 87.1766 30.2766 89.5868 30.2766C91.5345 30.2766 92.6585 29.0972 93.1211 28.4095L91.6758 27.453C91.1933 28.1526 90.5358 28.6184 89.5868 28.6184C88.6419 28.6184 87.9654 28.1886 87.5327 27.342L93.2047 25.0111L93.0077 24.5313L93.0087 24.5343ZM87.2254 25.9357C87.1756 24.3114 88.4956 23.4798 89.4406 23.4798C90.1807 23.4798 90.8094 23.8477 91.0182 24.3744L87.2264 25.9367L87.2254 25.9357ZM82.6158 30.0217H84.4799V17.6436H82.6158V30.0217ZM79.562 22.7922H79.4993C79.0816 22.2994 78.2828 21.8546 77.2712 21.8546C75.1464 21.8546 73.2047 23.7057 73.2047 26.0806C73.2047 28.4395 75.1464 30.2786 77.2702 30.2786C78.2818 30.2786 79.0806 29.8288 79.4983 29.3211H79.562V29.9248C79.562 31.534 78.6966 32.3996 77.298 32.3996C76.1591 32.3996 75.4528 31.583 75.1594 30.8953L73.538 31.569C74.0055 32.6855 75.2439 34.0578 77.298 34.0578C79.4844 34.0578 81.3286 32.7814 81.3286 29.6739V22.1095H79.562V22.7922ZM77.4293 28.6194C76.1441 28.6194 75.0688 27.5499 75.0688 26.0806C75.0688 24.5963 76.1431 23.5118 77.4293 23.5118C78.6956 23.5118 79.6943 24.5963 79.6943 26.0806C79.6943 27.5499 78.6956 28.6194 77.4293 28.6194ZM101.738 17.6446H97.279V30.0217H99.1392V25.331H101.738C103.803 25.331 105.829 23.8467 105.829 21.4868C105.829 19.1279 103.799 17.6436 101.738 17.6436V17.6446ZM101.788 23.6098H99.1382V19.3658H101.787C102.356 19.357 102.906 19.5755 103.315 19.9733C103.724 20.3712 103.959 20.9159 103.969 21.4878C103.969 22.4453 103.176 23.6108 101.787 23.6108L101.788 23.6098ZM113.282 21.8306C111.939 21.8306 110.542 22.4203 109.967 23.7267L111.618 24.4134C111.972 23.7267 112.626 23.5038 113.316 23.5038C114.281 23.5038 115.26 24.0796 115.276 25.0961V25.226C114.937 25.0331 114.217 24.7462 113.331 24.7462C111.553 24.7462 109.743 25.7188 109.743 27.5319C109.743 29.1911 111.198 30.2586 112.837 30.2586C114.087 30.2586 114.776 29.6989 115.211 29.0462H115.275V30.0017H117.07V25.254C117.07 23.059 115.421 21.8306 113.283 21.8306H113.282ZM113.058 28.6154C112.45 28.6154 111.602 28.3155 111.602 27.5659C111.602 26.6084 112.659 26.2405 113.575 26.2405C114.393 26.2405 114.778 26.4204 115.276 26.6563C115.128 27.8028 114.135 28.6154 113.057 28.6154H113.058ZM123.612 22.1025L121.477 27.4699H121.414L119.204 22.1025H117.198L120.518 29.6019L118.623 33.774H120.567L125.682 22.1015H123.613L123.612 22.1025ZM106.851 30.0227H108.715V17.6436H106.851V30.0217V30.0227Z" fill="white"/>
<path d="M10.6317 7.77787C10.3388 8.08361 10.1705 8.55769 10.1705 9.17164V31.071C10.1705 31.685 10.3388 32.1603 10.6317 32.4636L10.704 32.5304L23.0607 20.2637V19.974L10.704 7.70731L10.6317 7.7791V7.77787Z" fill="url(#paint0_linear)"/>
<path d="M27.1738 24.3546L23.0607 20.2636V19.974L27.18 15.883L27.2722 15.9363L32.1493 18.6941C33.5416 19.4764 33.5416 20.7637 32.1493 21.551L27.2735 24.3026L27.1738 24.3546Z" fill="url(#paint1_linear)"/>
<path d="M27.2735 24.3027L23.0607 20.1189L10.6317 32.4636C11.0929 32.9463 11.8482 33.0045 12.7057 32.5217L27.2735 24.3027Z" fill="url(#paint2_linear)"/>
<path d="M27.2734 15.935L12.7031 7.71596C11.8456 7.23816 11.0916 7.2951 10.6292 7.77785L23.0606 20.1188L27.2734 15.935Z" fill="url(#paint3_linear)"/>
</g>
<defs>
<linearGradient id="paint0_linear" x1="21.9639" y1="31.2988" x2="5.3449" y2="14.5656" gradientUnits="userSpaceOnUse">
<stop stop-color="#00A0FF"/>
<stop offset="0.007" stop-color="#00A1FF"/>
<stop offset="0.26" stop-color="#00BEFF"/>
<stop offset="0.512" stop-color="#00D2FF"/>
<stop offset="0.76" stop-color="#00DFFF"/>
<stop offset="1" stop-color="#00E3FF"/>
</linearGradient>
<linearGradient id="paint1_linear" x1="33.9631" y1="20.1178" x2="9.83697" y2="20.1178" gradientUnits="userSpaceOnUse">
<stop stop-color="#FFE000"/>
<stop offset="0.409" stop-color="#FFBD00"/>
<stop offset="0.775" stop-color="#FFA500"/>
<stop offset="1" stop-color="#FF9C00"/>
</linearGradient>
<linearGradient id="paint2_linear" x1="24.9821" y1="17.8452" x2="2.44658" y2="-4.84648" gradientUnits="userSpaceOnUse">
<stop stop-color="#FF3A44"/>
<stop offset="1" stop-color="#C31162"/>
</linearGradient>
<linearGradient id="paint3_linear" x1="7.50271" y1="39.7495" x2="17.5664" y2="29.6161" gradientUnits="userSpaceOnUse">
<stop stop-color="#32A071"/>
<stop offset="0.069" stop-color="#2DA771"/>
<stop offset="0.476" stop-color="#15CF74"/>
<stop offset="0.801" stop-color="#06E775"/>
<stop offset="1" stop-color="#00F076"/>
</linearGradient>
<clipPath id="clip0">
<rect width="135" height="40" fill="white"/>
</clipPath>
</defs>
</svg>
