<svg width="22" height="24" viewBox="0 0 22 24" fill="none" xmlns="http://www.w3.org/2000/svg">
<g clip-path="url(#clip0)">
<path d="M11.0048 6.60934C7.8816 6.60934 5.3624 9.01403 5.3624 11.9953C5.3624 14.9765 7.8816 17.3812 11.0048 17.3812C14.128 17.3812 16.6472 14.9765 16.6472 11.9953C16.6472 9.01403 14.128 6.60934 11.0048 6.60934ZM11.0048 15.4968C8.98651 15.4968 7.33651 13.9265 7.33651 11.9953C7.33651 10.064 8.9816 8.49371 11.0048 8.49371C13.028 8.49371 14.6731 10.064 14.6731 11.9953C14.6731 13.9265 13.0231 15.4968 11.0048 15.4968V15.4968ZM18.1941 6.38903C18.1941 7.08746 17.6048 7.64528 16.878 7.64528C16.1463 7.64528 15.562 7.08278 15.562 6.38903C15.562 5.69528 16.1512 5.13278 16.878 5.13278C17.6048 5.13278 18.1941 5.69528 18.1941 6.38903ZM21.9311 7.66403C21.8477 5.98121 21.445 4.49059 20.1535 3.26246C18.8669 2.03434 17.3053 1.64996 15.5423 1.56559C13.7253 1.46715 8.27936 1.46715 6.4624 1.56559C4.70436 1.64528 3.14276 2.02965 1.85124 3.25778C0.55972 4.4859 0.161952 5.97653 0.0735596 7.65934C-0.0295654 9.39371 -0.0295654 14.5921 0.0735596 16.3265C0.157042 18.0093 0.55972 19.5 1.85124 20.7281C3.14276 21.9562 4.69945 22.3406 6.4624 22.425C8.27936 22.5234 13.7253 22.5234 15.5423 22.425C17.3053 22.3453 18.8669 21.9609 20.1535 20.7281C21.4401 19.5 21.8428 18.0093 21.9311 16.3265C22.0343 14.5921 22.0343 9.3984 21.9311 7.66403V7.66403ZM19.5838 18.1875C19.2008 19.1062 18.4593 19.814 17.4919 20.1843C16.0432 20.7328 12.6057 20.6062 11.0048 20.6062C9.40392 20.6062 5.96151 20.7281 4.51776 20.1843C3.55526 19.8187 2.81374 19.1109 2.42579 18.1875C1.85124 16.8047 1.98383 13.5234 1.98383 11.9953C1.98383 10.4672 1.85615 7.18121 2.42579 5.80309C2.80883 4.88434 3.55035 4.17653 4.51776 3.80621C5.96642 3.25778 9.40392 3.38434 11.0048 3.38434C12.6057 3.38434 16.0481 3.26246 17.4919 3.80621C18.4544 4.17184 19.1959 4.87965 19.5838 5.80309C20.1584 7.1859 20.0258 10.4672 20.0258 11.9953C20.0258 13.5234 20.1584 16.8093 19.5838 18.1875Z" fill="black"/>
</g>
<defs>
<clipPath id="clip0">
<rect width="22" height="24" fill="white"/>
</clipPath>
</defs>
</svg>
