<svg width="135" height="40" viewBox="0 0 135 40" fill="none" xmlns="http://www.w3.org/2000/svg">
<path d="M0.359375 0.294861H134.656V39.7179H0.359375V0.294861Z" fill="black"/>
<path d="M0.703125 0.576923H134.297V39.4231H0.703125V0.576923ZM0 40H135V0H0V40Z" fill="#D2D2D2"/>
<path d="M11.0156 8.79486H24.1094V19.5384H11.0156V8.79486Z" fill="#F25022"/>
<path d="M25.4688 8.79486H38.5625V19.5384H25.4688V8.79486Z" fill="#7FBA00"/>
<path d="M11.0156 20.6411H24.1094V31.3846H11.0156V20.6411Z" fill="#00A4EF"/>
<path d="M25.4688 20.6411H38.5625V31.3846H25.4688V20.6411Z" fill="#FFB900"/>
<path d="M63.7969 20.8974C63.7969 20.5769 63.9375 20.3205 64.2187 20.1026C64.5 19.8846 64.8281 19.782 65.2187 19.782C65.625 19.782 65.9687 19.8974 66.2344 20.1154C66.5 20.3333 66.6406 20.6026 66.6406 20.8974C66.6406 21.2051 66.5 21.4743 66.2187 21.6795C65.9375 21.8974 65.6094 22 65.2031 22C64.7969 22 64.4687 21.8974 64.1875 21.6795C63.9375 21.4615 63.7969 21.2051 63.7969 20.8974ZM66.375 31.3846H64.0469V23.2436H66.375V31.3846ZM73.4687 29.9872C73.8125 29.9872 74.2031 29.9231 74.625 29.7949C75.0469 29.6667 75.4219 29.4872 75.7812 29.2692V31.0513C75.4062 31.2308 74.9844 31.359 74.5156 31.4487C74.0469 31.5384 73.5156 31.5897 72.9531 31.5897C71.5 31.5897 70.3125 31.2051 69.3906 30.4487C68.4687 29.6923 68.0156 28.7179 68.0156 27.5513C68.0156 26.2436 68.4844 25.1667 69.4219 24.3205C70.3594 23.4743 71.6719 23.0513 73.3906 23.0513C73.8281 23.0513 74.2656 23.1026 74.7187 23.1923C75.1719 23.282 75.5156 23.3974 75.7812 23.5128V25.3461C75.4219 25.1282 75.0469 24.9615 74.6719 24.8461C74.2969 24.7308 73.9062 24.6667 73.5156 24.6667C72.5937 24.6667 71.8594 24.9102 71.2812 25.3974C70.7187 25.8846 70.4375 26.5513 70.4375 27.3846C70.4375 28.2051 70.7031 28.8461 71.25 29.3077C71.7969 29.7692 72.5312 29.9872 73.4687 29.9872V29.9872ZM82.4219 23.1154C82.6094 23.1154 82.7812 23.1282 82.9219 23.141C83.0625 23.1667 83.2031 23.1923 83.2969 23.2179V25.1538C83.1719 25.0769 83 25.0128 82.7656 24.9487C82.5312 24.8846 82.25 24.8461 81.9062 24.8461C81.3281 24.8461 80.8437 25.0384 80.4531 25.4359C80.0625 25.8333 79.8594 26.4359 79.8594 27.2692V31.3846H77.5312V23.2436H79.8594V24.5256H79.8906C80.1094 24.0769 80.4219 23.7308 80.8594 23.4872C81.2969 23.2436 81.8125 23.1154 82.4219 23.1154V23.1154ZM83.4219 27.4359C83.4219 26.0897 83.8906 25.0256 84.8125 24.2308C85.7344 23.4487 87.0312 23.0513 88.6719 23.0513C90.2187 23.0513 91.4375 23.4359 92.3125 24.1923C93.1875 24.9487 93.625 25.9743 93.625 27.2564C93.625 28.5769 93.1562 29.6282 92.2344 30.4102C91.3125 31.1923 90.0469 31.5769 88.4531 31.5769C86.9219 31.5769 85.6875 31.2051 84.7969 30.4615C83.875 29.7308 83.4219 28.7179 83.4219 27.4359V27.4359ZM85.8594 27.3718C85.8594 28.2179 86.0937 28.8718 86.5625 29.3205C87.0312 29.7692 87.7031 29.9872 88.5781 29.9872C89.4219 29.9872 90.0781 29.7692 90.5156 29.3205C90.9531 28.8718 91.1875 28.2051 91.1875 27.3205C91.1875 26.4487 90.9531 25.782 90.5 25.3333C90.0469 24.8846 89.3906 24.6667 88.5625 24.6667C87.7031 24.6667 87.0469 24.8974 86.5625 25.3718C86.0937 25.8461 85.8594 26.5 85.8594 27.3718ZM97.0937 25.3846C97.0937 25.6538 97.2031 25.8718 97.4062 26.0256C97.625 26.1795 98.0937 26.3718 98.8125 26.6154C99.75 26.9231 100.406 27.2692 100.781 27.6538C101.156 28.0384 101.344 28.5 101.344 29.0384C101.344 29.8077 100.984 30.4231 100.266 30.8846C99.5469 31.3461 98.5781 31.5769 97.3594 31.5769C96.9531 31.5769 96.5 31.5384 96 31.4487C95.5 31.3718 95.0781 31.2564 94.7344 31.141V29.2564C95.1562 29.5 95.6094 29.6923 96.1094 29.8333C96.5937 29.9743 97.0469 30.0513 97.4375 30.0513C97.9687 30.0513 98.3594 29.9872 98.6094 29.8718C98.8594 29.7564 98.9844 29.5513 98.9844 29.2564C98.9844 28.9872 98.8594 28.7692 98.5937 28.5897C98.3281 28.4102 97.8437 28.1923 97.1094 27.9615C96.25 27.6667 95.6406 27.3333 95.2812 26.9615C94.9219 26.5897 94.7344 26.1154 94.7344 25.5513C94.7344 24.8205 95.0937 24.2179 95.7969 23.7436C96.5 23.2692 97.4219 23.0384 98.5625 23.0384C98.9062 23.0384 99.2969 23.0641 99.7344 23.1282C100.172 23.1923 100.531 23.2692 100.812 23.3718V25.1923C100.5 25.0256 100.141 24.8846 99.7344 24.7564C99.3281 24.641 98.9062 24.5769 98.5156 24.5769C98.0781 24.5769 97.7187 24.6538 97.4844 24.7949C97.2187 24.9359 97.0937 25.141 97.0937 25.3846V25.3846ZM102.375 27.4359C102.375 26.0897 102.844 25.0256 103.766 24.2308C104.687 23.4487 105.984 23.0513 107.625 23.0513C109.172 23.0513 110.391 23.4359 111.266 24.1923C112.141 24.9487 112.578 25.9743 112.578 27.2564C112.578 28.5769 112.109 29.6282 111.187 30.4102C110.266 31.1923 109 31.5769 107.406 31.5769C105.875 31.5769 104.641 31.2051 103.75 30.4615C102.828 29.7308 102.375 28.7179 102.375 27.4359V27.4359ZM104.797 27.3718C104.797 28.2179 105.031 28.8718 105.5 29.3205C105.969 29.7692 106.641 29.9872 107.516 29.9872C108.359 29.9872 109.016 29.7692 109.453 29.3205C109.891 28.8718 110.125 28.2051 110.125 27.3205C110.125 26.4487 109.891 25.782 109.437 25.3333C108.984 24.8846 108.328 24.6667 107.5 24.6667C106.641 24.6667 105.984 24.8974 105.5 25.3718C105.031 25.8461 104.797 26.5 104.797 27.3718ZM120.281 24.8205V29C120.281 29.8718 120.531 30.5128 121.016 30.9487C121.5 31.3846 122.25 31.5897 123.234 31.5897C123.562 31.5897 123.906 31.5641 124.25 31.5C124.594 31.4359 124.844 31.3846 124.984 31.3077V29.7179C124.844 29.7949 124.672 29.859 124.484 29.9102C124.297 29.9615 124.125 29.9872 124 29.9872C123.531 29.9872 123.172 29.8846 122.953 29.6795C122.734 29.4743 122.625 29.1154 122.625 28.6154V24.8077H125V23.2436H122.641V20.8333L120.297 21.4231V23.2564H116.812V22.2692C116.812 21.782 116.937 21.4102 117.203 21.1538C117.469 20.8974 117.844 20.782 118.328 20.782C118.578 20.782 118.797 20.8077 119 20.859C119.187 20.9102 119.328 20.9615 119.406 21V19.3461C119.234 19.2949 119.047 19.2692 118.828 19.2436C118.609 19.2179 118.359 19.2051 118.078 19.2051C117.016 19.2051 116.141 19.4743 115.469 20.0256C114.797 20.5769 114.453 21.2692 114.453 22.1282V23.2564H112.797V24.8205H114.453V31.3974H116.812V24.8205H120.281V24.8205ZM61.7969 20.0256V31.3846H59.3906V22.4872H59.3594L55.0625 31.3846H53.4687L49.0625 22.4872H49.0312V31.3846H46.8125V20.0256H50.25L54.2344 28.4487H54.2969L58.5 20.0256H61.7969ZM53.125 15.1154C52.2969 15.5 51.3594 15.6923 50.3125 15.6923C49.5156 15.6923 48.8125 15.5513 48.1875 15.2564C47.5781 14.9743 47.0937 14.5641 46.7656 14.0384C46.4375 13.5128 46.2656 12.9231 46.2656 12.2692C46.2656 11.5769 46.4531 10.9487 46.8125 10.4102C47.1719 9.87178 47.6875 9.43589 48.3594 9.12819C49.0312 8.8205 49.7812 8.66666 50.625 8.66666C51.0469 8.66666 51.4687 8.70512 51.8906 8.76922C52.3125 8.83332 52.6562 8.92307 52.9219 9.02563V10.0513C52.2969 9.70512 51.5 9.53845 50.5312 9.53845C49.9531 9.53845 49.4375 9.65384 48.9687 9.8846C48.5 10.1154 48.1406 10.4359 47.8906 10.8333C47.6406 11.2436 47.5156 11.7051 47.5156 12.2179C47.5156 13.0256 47.7812 13.6667 48.2969 14.141C48.8125 14.6154 49.5312 14.8461 50.4375 14.8461C51.0156 14.8461 51.5312 14.7564 51.9687 14.5641V12.8077H50.2031V11.9615H53.125V15.1154ZM59.8594 13.4102H55.7656C55.7812 13.8974 55.9687 14.2692 56.2812 14.5385C56.6094 14.7949 57.0312 14.9359 57.5625 14.9359C58.2656 14.9359 58.875 14.7692 59.4062 14.4359V15.2564C59.1719 15.3846 58.875 15.5 58.5156 15.5769C58.1562 15.6538 57.7812 15.6923 57.4062 15.6923C56.5156 15.6923 55.8125 15.4743 55.3281 15.0385C54.8437 14.6026 54.5937 13.9872 54.5937 13.1923C54.5937 12.7051 54.7187 12.2564 54.9531 11.8718C55.1875 11.4743 55.5312 11.1667 55.9531 10.9487C56.375 10.7308 56.8594 10.6154 57.375 10.6154C58.1406 10.6154 58.75 10.8205 59.1875 11.2308C59.625 11.641 59.8437 12.2051 59.8437 12.9359V13.4102H59.8594ZM58.7187 12.6795C58.7187 12.2564 58.5937 11.9359 58.3594 11.7179C58.125 11.5 57.7969 11.3846 57.3594 11.3846C56.9687 11.3846 56.625 11.5 56.3281 11.7308C56.0312 11.9615 55.8594 12.282 55.7656 12.6795H58.7187V12.6795ZM64.2969 15.5256C64.1875 15.5769 64.0469 15.6154 63.8437 15.641C63.6562 15.6667 63.4844 15.6795 63.3281 15.6795C62.2344 15.6795 61.6875 15.1795 61.6875 14.1923V11.5H60.6875V10.7308H61.6875V9.57691L62.8281 9.28204V10.7179H64.2812V11.4872H62.8281V14.0256C62.8281 14.3461 62.8906 14.5769 63.0156 14.7051C63.1406 14.8333 63.3594 14.8974 63.6875 14.8974C63.9062 14.8974 64.1094 14.8461 64.2812 14.7436V15.5256H64.2969ZM69.9531 9.01281C69.9531 9.16666 69.8906 9.29486 69.75 9.41025C69.6094 9.52563 69.4375 9.57691 69.2344 9.57691C69.0312 9.57691 68.8594 9.52563 68.7187 9.41025C68.5781 9.30768 68.5156 9.16666 68.5156 8.99999C68.5156 8.83332 68.5937 8.6923 68.7344 8.58973C68.875 8.48717 69.0469 8.42307 69.2344 8.42307C69.4219 8.42307 69.5937 8.47435 69.7344 8.58973C69.8906 8.71794 69.9531 8.84614 69.9531 9.01281V9.01281ZM69.7969 15.5769H68.6562V10.7308H69.7969V15.5769V15.5769ZM74.75 15.5256C74.6406 15.5769 74.5 15.6154 74.2969 15.641C74.1094 15.6667 73.9375 15.6795 73.7812 15.6795C72.6875 15.6795 72.1406 15.1795 72.1406 14.1923V11.5H71.1406V10.7308H72.1406V9.57691L73.2812 9.28204V10.7179H74.7344V11.4872H73.2812V14.0256C73.2812 14.3461 73.3437 14.5769 73.4687 14.7051C73.5937 14.8333 73.8125 14.8974 74.1406 14.8974C74.3594 14.8974 74.5625 14.8461 74.7344 14.7436V15.5256H74.75ZM82.2187 9.1923C82.0312 9.11537 81.8281 9.06409 81.5937 9.06409C80.9531 9.06409 80.6406 9.3846 80.6406 10.0256V10.7179H81.9844V11.4872H80.6406V15.5641H79.5V11.5H78.5V10.7308H79.5V9.98717C79.5 9.47435 79.6719 9.06409 80.0312 8.7564C80.3906 8.44871 80.875 8.29486 81.5 8.29486C81.8125 8.29486 82.0469 8.3205 82.2344 8.38461V9.1923H82.2187ZM86.4219 11.6667C86.3594 11.6282 86.2344 11.5897 86.0781 11.5513C85.9219 11.5256 85.7812 11.5 85.6719 11.5C85.2656 11.5 84.9375 11.6538 84.6875 11.9487C84.4375 12.2436 84.3125 12.6282 84.3125 13.1026V15.5769H83.1719V10.7308H84.3125V11.7051H84.3437C84.4687 11.3718 84.6719 11.1154 84.9375 10.9231C85.2031 10.7308 85.5156 10.641 85.8594 10.641C86.0937 10.641 86.2812 10.6667 86.4062 10.7051V11.6667H86.4219ZM92.9375 13.1282C92.9375 13.9102 92.6562 14.5384 92.1094 15C91.5625 15.4615 90.8281 15.6923 89.9219 15.6923C89.0312 15.6923 88.3125 15.4615 87.7812 15.0128C87.25 14.5641 86.9844 13.9615 86.9844 13.2051C86.9844 12.3974 87.2656 11.7692 87.8125 11.3077C88.3594 10.8461 89.1094 10.6154 90.0625 10.6154C90.9531 10.6154 91.6562 10.8333 92.1562 11.282C92.6875 11.7308 92.9375 12.3461 92.9375 13.1282V13.1282ZM91.7656 13.1538C91.7656 12.5769 91.6094 12.141 91.3125 11.8461C91 11.5513 90.5781 11.3974 90.0156 11.3974C89.4531 11.3974 89 11.5513 88.6719 11.8718C88.3437 12.1795 88.1875 12.6282 88.1875 13.1923C88.1875 13.7436 88.3437 14.1667 88.6719 14.4743C89 14.782 89.4375 14.9359 90.0156 14.9359C90.5937 14.9359 91.0312 14.782 91.3281 14.4872C91.6094 14.1667 91.7656 13.7308 91.7656 13.1538V13.1538ZM103.141 15.5769H102V12.8205C102 12.3205 101.906 11.9615 101.719 11.7308C101.531 11.5 101.203 11.3974 100.75 11.3974C100.375 11.3974 100.047 11.5385 99.7969 11.8205C99.5312 12.1026 99.4062 12.4487 99.4062 12.8333V15.5769H98.2656V12.7308C98.2656 11.8461 97.8437 11.3974 97.0156 11.3974C96.625 11.3974 96.2969 11.5385 96.0469 11.8077C95.7969 12.0769 95.6719 12.4231 95.6719 12.8461V15.5897H94.5312V10.7308H95.6719V11.4872H95.6875C96.1094 10.8974 96.7344 10.6154 97.5312 10.6154C97.9062 10.6154 98.25 10.7051 98.5625 10.8718C98.8594 11.0385 99.0781 11.282 99.2187 11.5897C99.4531 11.2564 99.7187 11.0128 100.047 10.8461C100.375 10.6923 100.75 10.6026 101.187 10.6026C102.484 10.6026 103.125 11.2564 103.125 12.5769V15.5769H103.141Z" fill="white"/>
</svg>
