<svg width="22" height="24" viewBox="0 0 22 24" fill="none" xmlns="http://www.w3.org/2000/svg">
<path d="M19.6429 1.5H2.35714C1.0558 1.5 0 2.50781 0 3.75V20.25C0 21.4922 1.0558 22.5 2.35714 22.5H19.6429C20.9442 22.5 22 21.4922 22 20.25V3.75C22 2.50781 20.9442 1.5 19.6429 1.5ZM17.2415 8.94375C17.2513 9.075 17.2513 9.21094 17.2513 9.34219C17.2513 13.4062 14.0103 18.0891 8.08795 18.0891C6.26116 18.0891 4.56696 17.5828 3.14286 16.7109C3.40312 16.7391 3.65357 16.7484 3.91875 16.7484C5.42634 16.7484 6.81116 16.2609 7.91607 15.4359C6.50179 15.4078 5.31339 14.5219 4.9058 13.3031C5.40179 13.3734 5.84866 13.3734 6.35937 13.2469C4.88616 12.9609 3.78125 11.7234 3.78125 10.2281V10.1906C4.20848 10.4203 4.70937 10.5609 5.23482 10.5797C4.79307 10.2992 4.43093 9.91869 4.18072 9.4721C3.93052 9.02552 3.80002 8.52675 3.80089 8.02031C3.80089 7.44844 3.95804 6.92344 4.23795 6.46875C5.82411 8.33437 8.2058 9.55313 10.8772 9.68438C10.4205 7.59844 12.0558 5.90625 14.0201 5.90625C14.9482 5.90625 15.783 6.27656 16.3723 6.87656C17.0991 6.74531 17.7964 6.4875 18.4152 6.13594C18.1746 6.84844 17.6688 7.44844 17.0009 7.82812C17.6491 7.7625 18.2777 7.58906 18.8571 7.35C18.4201 7.96406 17.8701 8.50781 17.2415 8.94375Z" fill="black"/>
</svg>
